<?xml version="1.0" encoding="UTF-8" standalone="no"?>
<svg
   xmlns:dc="http://purl.org/dc/elements/1.1/"
   xmlns:cc="http://creativecommons.org/ns#"
   xmlns:rdf="http://www.w3.org/1999/02/22-rdf-syntax-ns#"
   xmlns:svg="http://www.w3.org/2000/svg"
   xmlns="http://www.w3.org/2000/svg"
   xmlns:xlink="http://www.w3.org/1999/xlink"
   xmlns:sodipodi="http://sodipodi.sourceforge.net/DTD/sodipodi-0.dtd"
   xmlns:inkscape="http://www.inkscape.org/namespaces/inkscape"
   id="svg4588"
   height="24"
   width="24"
   version="1.1"
   inkscape:version="0.92.4 (5da689c313, 2019-01-14)"
   sodipodi:docname="finSAR_edit_pi.svg">
  <sodipodi:namedview
     pagecolor="#ffffff"
     bordercolor="#666666"
     borderopacity="1"
     objecttolerance="10"
     gridtolerance="10"
     guidetolerance="10"
     inkscape:pageopacity="0"
     inkscape:pageshadow="2"
     inkscape:window-width="1920"
     inkscape:window-height="1017"
     id="namedview4213"
     showgrid="false"
     inkscape:zoom="15.028564"
     inkscape:cx="-0.54848332"
     inkscape:cy="15.589582"
     inkscape:window-x="-8"
     inkscape:window-y="-8"
     inkscape:window-maximized="1"
     inkscape:current-layer="svg4588" />
  <defs
     id="defs4590">
    <linearGradient
       inkscape:collect="always"
       id="linearGradient860">
      <stop
         style="stop-color:#d4d3d3;stop-opacity:1;"
         offset="0"
         id="stop856" />
      <stop
         style="stop-color:#d4d3d3;stop-opacity:0;"
         offset="1"
         id="stop858" />
    </linearGradient>
    <linearGradient
       id="E"
       x1="73.009003"
       gradientUnits="userSpaceOnUse"
       x2="73.009003"
       gradientTransform="matrix(1.0329,0,0,1.0329,-59.414,-1122.2)"
       y1="1086.4"
       y2="1055.4">
      <stop
         id="stop4324"
         stop-color="#fff"
         offset="0" />
      <stop
         id="stop4326"
         stop-color="#939393"
         offset="1" />
    </linearGradient>
    <linearGradient
       id="F"
       x1="73.009003"
       gradientUnits="userSpaceOnUse"
       x2="73.009003"
       gradientTransform="matrix(1.0329,0,0,1.0329,-59.414,-1090.2)"
       y1="1086.4"
       y2="1070.9">
      <stop
         id="stop3297-5-3-1-9-9"
         stop-color="#fff"
         offset="0" />
      <stop
         id="stop4354-4-5-0-3"
         stop-color="#fff"
         stop-opacity="0"
         offset="1" />
    </linearGradient>
    <linearGradient
       inkscape:collect="always"
       xlink:href="#linearGradient860"
       id="linearGradient866"
       x1="14.22363"
       y1="6.1847382"
       x2="18.443438"
       y2="6.1847382"
       gradientUnits="userSpaceOnUse" />
  </defs>
  <metadata
     id="metadata4593">
    <rdf:RDF>
      <cc:Work
         rdf:about="">
        <dc:format>image/svg+xml</dc:format>
        <dc:type
           rdf:resource="http://purl.org/dc/dcmitype/StillImage" />
        <dc:title></dc:title>
      </cc:Work>
    </rdf:RDF>
  </metadata>
  <rect
     style="fill:#666666;fill-opacity:1;stroke:#808080;stroke-width:0.72090346;stroke-dasharray:none;stroke-opacity:1"
     id="rect33"
     width="23.359205"
     height="23.486526"
     x="0.3313944"
     y="0.33065954"
     inkscape:export-filename="IconRT.svg"
     inkscape:export-xdpi="256"
     inkscape:export-ydpi="256" />
  <g
     id="g35"
     transform="matrix(1.4478305,0.93001309,-0.87006076,1.4423195,101.22961,-318.66565)"
     style="stroke:#d4d3d3;stroke-width:1.41172004;stroke-opacity:1">
    <text
       xml:space="preserve"
       style="font-size:4.93889999px;line-height:1.25;font-family:sans-serif;-inkscape-font-specification:sans-serif;text-align:center;text-anchor:middle;fill:#ffffff;stroke:#d4d3d3;stroke-width:0.37351799;stroke-opacity:1"
       x="55.591072"
       y="196.31436"
       id="text35"><tspan
         sodipodi:role="line"
         id="tspan35"
         style="fill:#ffffff;stroke:#d4d3d3;stroke-width:0.37351799;stroke-opacity:1"
         x="55.591072"
         y="196.31436">&gt;  &lt;</tspan></text>
    <path
       inkscape:connector-curvature="0"
       style="fill:#ffffff;stroke:#d4d3d3;stroke-width:0.37351799px;stroke-linecap:butt;stroke-linejoin:miter;stroke-opacity:1"
       d="M 48.071505,194.74779 H 62.528764"
       id="path35" />
  </g>
  <text
     xml:space="preserve"
     style="font-size:7.62956047px;line-height:1.25;font-family:sans-serif;-inkscape-font-specification:sans-serif;text-align:center;text-anchor:middle;fill:#b5b5b5;stroke:#d4d3d3;stroke-width:0.63600001;stroke-opacity:1;fill-opacity:1;stroke-miterlimit:4;stroke-dasharray:none;"
     x="16.206871"
     y="8.9657278"
     id="text36"
     transform="scale(0.98441724,1.0158294)"><tspan
       sodipodi:role="line"
       id="tspan36"
       style="font-style:normal;font-variant:normal;font-weight:normal;font-stretch:normal;font-size:7.62956047px;font-family:sans-serif;-inkscape-font-specification:sans-serif;fill:#b5b5b5;stroke:#d4d3d3;stroke-width:0.63600001;stroke-opacity:1;fill-opacity:1;stroke-miterlimit:4;stroke-dasharray:none;"
       x="16.206871"
       y="8.9657278">E</tspan></text>
  <path
     style="fill:#000000;fill-opacity:1;stroke:#b4b4b4;stroke-width:0.04796982;stroke-miterlimit:79.84031677;stroke-dasharray:none;stroke-opacity:1"
     d="M 0.70337264,12.068116 V 0.69527227 H 12.016254 23.329136 V 12.068116 23.44096 H 12.016254 0.70337264 Z m 18.22884336,8.74595 c 0.142738,-0.235552 0.307347,-0.50988 0.365799,-0.609616 l 0.106277,-0.18134 -0.890105,-1.119295 c -0.489557,-0.615613 -0.88615,-1.124304 -0.881318,-1.130426 0.0048,-0.0061 1.018316,0.638235 2.252187,1.431903 1.233871,0.793668 2.259386,1.433153 2.278923,1.421079 0.07099,-0.04388 0.328652,-0.516301 0.297619,-0.545694 -0.01754,-0.01662 -1.002077,-0.652477 -2.187854,-1.413026 -1.185777,-0.76055 -2.139177,-1.382424 -2.118667,-1.381942 0.02051,4.79e-4 0.59494,0.133619 1.276511,0.295863 0.681571,0.162244 1.252371,0.286919 1.268444,0.277058 0.07418,-0.04551 0.718958,-1.18025 0.686632,-1.208394 -0.01996,-0.01737 -1.392722,-0.343421 -3.050593,-0.724549 l -3.01431,-0.692961 -0.06825,0.08428 c -0.06777,0.08369 -0.08761,0.07183 -2.80203,-1.673948 -1.579438,-1.015815 -2.7271465,-1.778612 -2.7180686,-1.8065 0.00864,-0.02655 0.017637,-0.08092 0.019987,-0.12083 C 9.7571145,11.65269 5.9130701,6.6551049 5.8601278,6.6541447 5.8338344,6.653669 5.1188039,7.8417658 5.126593,7.872989 5.1298949,7.8862171 5.4869211,8.3465874 5.919989,8.8960337 6.3530565,9.4454799 6.6992762,9.9031351 6.689366,9.9130453 6.6794559,9.9229555 5.5234121,9.1939702 4.1203797,8.2930783 2.7173473,7.3921859 1.5575141,6.6624455 1.5429725,6.6714327 1.5284309,6.6804198 1.4476109,6.7994361 1.3633724,6.9359134 1.2129991,7.1795373 1.2116447,7.1852098 1.2889544,7.2475813 1.3322631,7.2825217 2.5302035,8.0576396 3.9510443,8.9700655 5.371885,9.8824913 6.5130997,10.632893 6.4870769,10.637625 6.4610545,10.642357 5.855131,10.505195 5.1405806,10.33282 4.1800403,10.101103 3.8298382,10.031132 3.7970492,10.06438 c -0.1093378,0.110867 -0.7006358,1.154428 -0.6697447,1.182009 0.037143,0.03316 5.9485063,1.401481 6.0543125,1.401407 0.034947,-2.5e-5 0.084493,-0.04603 0.1101011,-0.102236 0.02914,-0.06396 0.065194,-0.09157 0.09636,-0.07381 0.027389,0.01561 1.2685159,0.809872 2.7580589,1.765033 l 2.708261,1.736657 -0.06678,0.113056 c -0.05838,0.09884 -0.05964,0.123371 -0.01,0.195083 0.13612,0.196492 3.856448,4.958357 3.874736,4.959501 0.01117,6.99e-4 0.137086,-0.191456 0.279824,-0.427009 z M 18.172381,8.7901787 v -0.659585 h -1.39912 -1.39912 V 7.4515674 6.7725414 l 1.309176,-0.01054 1.309177,-0.01054 0.01098,-0.6495913 0.01098,-0.6495912 h -1.32016 -1.32016 V 4.9525934 4.4529078 h 1.359145 1.359145 V 3.7933229 3.1337379 h -2.058705 -2.058704 v 3.1580129 3.1580128 h 2.098679 2.09868 z"
     id="path36"
     inkscape:connector-curvature="0" />
  <path
     style="fill:#000000;fill-opacity:1;stroke:#b4b4b4;stroke-width:0.04796982;stroke-miterlimit:79.84031677;stroke-dasharray:none;stroke-opacity:1"
     d="M -0.0161746,12.068116 V -0.02427497 H 12.016254 24.048683 V 12.068116 24.160507 H 12.016254 -0.0161746 Z m 23.3852856,0 V 0.65529742 H 12.016254 0.66339779 V 12.068116 23.480935 H 12.016254 23.369111 Z"
     id="path38"
     inkscape:connector-curvature="0" />
  <path
     style="fill:#000000;fill-opacity:1;stroke:#b4b4b4;stroke-width:0.04796982;stroke-miterlimit:79.84031677;stroke-dasharray:none;stroke-opacity:1"
     d="M 0.74334748,12.068116 V 0.73524711 H 12.016254 23.289161 V 12.068116 23.400985 H 12.016254 0.74334748 Z m 18.22988252,8.7581 c 0.148962,-0.237968 0.317143,-0.517743 0.373735,-0.62172 l 0.102894,-0.18905 -0.799699,-1.011135 c -0.439834,-0.556125 -0.789822,-1.021012 -0.777751,-1.033083 0.01207,-0.01207 0.154152,0.06996 0.315737,0.182298 0.337023,0.234299 2.435646,1.580449 3.314836,2.126282 0.325779,0.202255 0.622552,0.361915 0.659495,0.354801 0.07551,-0.01454 0.327187,-0.411294 0.327187,-0.515788 0,-0.06958 -0.276769,-0.255692 -2.779388,-1.869019 -0.694405,-0.447652 -1.254804,-0.821661 -1.245334,-0.831132 0.0095,-0.0095 0.484764,0.09146 1.056206,0.224283 0.571442,0.132827 1.07459,0.241503 1.118108,0.241503 0.04352,0 0.107095,-0.03148 0.141283,-0.06996 0.106724,-0.120111 0.629804,-1.060123 0.629804,-1.131803 0,-0.03746 -0.04047,-0.07951 -0.08994,-0.09345 -0.431576,-0.121572 -5.896222,-1.383107 -5.991267,-1.383107 -0.03754,0 -0.07595,0.02248 -0.08535,0.04997 -0.03348,0.09789 -0.15371,0.02744 -2.288125,-1.340686 -2.333045,-1.495447 -3.1780002,-2.072117 -3.1780002,-2.168938 0,-0.0892 -0.621162,-0.930438 -2.1533974,-2.9163325 C 6.2847051,7.0939808 5.8932902,6.6071579 5.8488465,6.6219726 5.7919803,6.6409278 5.1052144,7.7719462 5.1025977,7.8509521 c -0.0011,0.03308 0.311741,0.4643778 0.6951925,0.9584405 0.3834512,0.4940627 0.691076,0.9044045 0.6836099,0.9118702 C 6.473934,9.7287289 5.4361566,9.0799243 4.1752281,8.2794748 2.9142995,7.4790257 1.8044272,6.7809833 1.7088452,6.7282697 L 1.5350598,6.6324272 1.4557078,6.7304227 C 1.4120641,6.7843204 1.3294656,6.9084303 1.2721553,7.0062228 L 1.167955,7.1840273 1.2935543,7.2875434 c 0.06908,0.056933 0.8504912,0.5704166 1.73647,1.1410732 2.3950341,1.5426353 3.1947968,2.0688984 3.1746799,2.0890154 -0.00995,0.0099 -0.4827982,-0.09003 -1.0507828,-0.222162 C 4.5859367,10.163336 4.0453651,10.043436 3.952651,10.029028 l -0.1685709,-0.0262 -0.1747074,0.27312 c -0.2440694,0.381555 -0.5075093,0.871029 -0.5075093,0.942959 0,0.0332 0.040475,0.07165 0.089943,0.08542 0.4829802,0.134518 5.8992244,1.383393 5.9996364,1.383393 0.035054,0 0.083735,-0.03737 0.1081808,-0.08305 0.025726,-0.04807 0.068658,-0.07376 0.1019298,-0.06099 0.031616,0.01213 1.2545466,0.789241 2.7176246,1.726909 2.121405,1.359582 2.654689,1.718029 2.633218,1.769917 -0.08316,0.200974 -0.172998,0.073 2.024127,2.883292 1.556003,1.990247 1.849819,2.354512 1.890717,2.344064 0.01933,-0.0049 0.157027,-0.203682 0.30599,-0.44165 z M 18.212355,8.7901787 V 8.0906188 h -1.399119 -1.39912 V 7.4515674 6.8125163 l 1.309176,-0.01054 1.309177,-0.01054 0.01094,-0.6895661 0.01094,-0.6895661 H 16.73423 15.414116 V 4.9525934 4.4928827 h 1.359145 1.359145 V 3.7933229 3.093763 h -2.09868 -2.098679 v 3.1979878 3.1979877 h 2.138654 2.138654 z"
     id="path40"
     inkscape:connector-curvature="0"
     inkscape:export-xdpi="135.24872"
     inkscape:export-ydpi="135.24872" />
</svg>
